<?xml version="1.0" encoding="UTF-8" standalone="no"?>
<!-- Generator: Adobe Illustrator 13.0.0, SVG Export Plug-In . SVG Version: 6.00 Build 14576)  -->

<svg
   xmlns:dc="http://purl.org/dc/elements/1.1/"
   xmlns:cc="http://creativecommons.org/ns#"
   xmlns:rdf="http://www.w3.org/1999/02/22-rdf-syntax-ns#"
   xmlns:svg="http://www.w3.org/2000/svg"
   xmlns="http://www.w3.org/2000/svg"
   xmlns:sodipodi="http://sodipodi.sourceforge.net/DTD/sodipodi-0.dtd"
   xmlns:inkscape="http://www.inkscape.org/namespaces/inkscape"
   version="1.1"
   id="Layer_1"
   x="0px"
   y="0px"
   width="793.322px"
   height="340.809px"
   viewBox="0 0 793.322 340.809"
   enable-background="new 0 0 793.322 340.809"
   xml:space="preserve"
   inkscape:version="0.91 r13725"
   sodipodi:docname="notepad logo.svg"><metadata
     id="metadata55"><rdf:RDF><cc:Work
         rdf:about=""><dc:format>image/svg+xml</dc:format><dc:type
           rdf:resource="http://purl.org/dc/dcmitype/StillImage" /></cc:Work></rdf:RDF></metadata><defs
     id="defs53" /><sodipodi:namedview
     pagecolor="#ffffff"
     bordercolor="#666666"
     borderopacity="1"
     objecttolerance="10"
     gridtolerance="10"
     guidetolerance="10"
     inkscape:pageopacity="0"
     inkscape:pageshadow="2"
     inkscape:window-width="1920"
     inkscape:window-height="1017"
     id="namedview51"
     showgrid="false"
     inkscape:zoom="0.8924497"
     inkscape:cx="404.17452"
     inkscape:cy="9.3057899"
     inkscape:window-x="0"
     inkscape:window-y="30"
     inkscape:window-maximized="1"
     inkscape:current-layer="flowRoot4159" /><path
     style="opacity:1;fill:#000000;fill-opacity:1;fill-rule:evenodd;stroke:none;stroke-width:0.1;stroke-miterlimit:4;stroke-dasharray:none;stroke-opacity:1"
     d="m 43.485141,75.050318 0,159.974882 699.883519,0 0,-159.974882 -699.883519,0 z m 667.736659,14.358045 12.6028,0 0,88.296757 c 0,7.8892 0.14068,13.09452 0.42076,15.61532 l -12.04261,0 c -0.14006,-0.7469 -0.30374,-2.47351 -0.49048,-5.18104 -0.14004,-2.70753 -0.21161,-5.04285 -0.21161,-7.00349 l -0.27886,0 c -2.33408,4.85489 -5.43933,8.33361 -9.31392,10.43429 -3.8279,2.10067 -8.58817,3.15193 -14.28333,3.15193 -9.56974,0 -16.61929,-3.2229 -21.14741,-9.66496 -4.48143,-6.44207 -6.72216,-16.19791 -6.72216,-29.26877 0,-26.4218 9.29027,-39.63333 27.86957,-39.63333 5.74184,0 10.52515,1.05128 14.35304,3.15194 3.8279,2.10067 6.91013,5.43873 9.24421,10.01352 l 0.13943,0 -0.13943,-8.4724 0,-31.439767 z m -423.59045,11.203587 8.4027,0 0,16.94482 14.0045,0 0,9.172 -14.0045,0 0,47.8269 c 0,3.64117 0.58321,6.20679 1.75026,7.70061 1.21372,1.44712 3.29074,2.171 6.23168,2.171 1.68054,0 4.10799,-0.32739 7.28234,-0.98094 l 0,9.31392 c -4.15467,1.12037 -8.40333,1.68054 -12.74472,1.68054 -10.08322,0 -15.12484,-5.71944 -15.12484,-17.15643 l 0,-50.5556 -8.75126,0 0,-9.172 9.24172,0 3.71212,-16.94482 z M 108.2917,116.15507 c 8.30934,0 14.3767,2.07702 18.20459,6.23169 3.87458,4.10799 5.81093,10.92474 5.81093,20.44781 l 0,50.48587 -12.6725,0 0,-48.03603 c 0,-4.99494 -0.4911,-8.86764 -1.47141,-11.62186 -0.98031,-2.75421 -2.54322,-4.73912 -4.69057,-5.95284 -2.14736,-1.21373 -5.29867,-1.81996 -9.45334,-1.81996 -6.068609,0 -10.854419,2.07702 -14.355539,6.23169 -3.50112,4.15467 -5.25075,9.92016 -5.25075,17.29586 l 0,43.90314 -12.60529,0 0,-59.58818 c 0,-8.82283 -0.13817,-14.21487 -0.41827,-16.17549 l 11.9032,0 c 0.0466,0.2334 0.0928,0.86268 0.13942,1.88967 0.0467,1.02699 0.0927,2.21893 0.13942,3.57269 0.0933,1.30709 0.18797,3.80363 0.28134,7.49148 l 0.20913,0 c 2.89427,-5.22835 6.23231,-8.91682 10.01353,-11.06417 3.82789,-2.19404 8.567629,-3.29137 14.216109,-3.29137 z m 98.87794,0 c 11.57704,0 20.09489,3.19738 25.55664,9.59277 5.46176,6.3487 8.19356,16.22217 8.19356,29.61981 0,13.25759 -2.91854,23.13106 -8.75375,29.61981 -5.83519,6.48875 -14.30698,9.73467 -25.41721,9.73467 -11.06355,0 -19.42018,-3.36107 -25.06866,-10.08322 -5.64849,-6.76884 -8.47241,-16.52717 -8.47241,-29.27126 0,-26.14173 11.32123,-39.21258 33.96183,-39.21258 z m 170.58592,0 c 22.26714,0 33.40164,13.42129 33.40164,40.26323 l 0,1.68053 -54.05858,0 c 0,8.68279 1.79817,15.38192 5.39267,20.09676 3.59448,4.71485 8.84585,7.07321 15.75473,7.07321 5.46176,0 9.82556,-1.09733 13.09328,-3.29137 3.31438,-2.19403 5.55511,-4.9719 6.72214,-8.33298 l 11.06418,3.15193 c -4.52813,11.9505 -14.82111,17.92575 -30.8796,17.92575 -11.20359,0 -19.74695,-3.33804 -25.62884,-10.01352 -5.8352,-6.67547 -8.75125,-16.59501 -8.75125,-29.75923 0,-12.51068 2.91605,-22.10532 8.75125,-28.78078 5.88189,-6.67548 14.26155,-10.01353 25.13838,-10.01353 z m 210.50058,0 c 9.52305,0 16.68775,2.19466 21.49596,6.58273 4.80822,4.34139 7.21263,10.64404 7.21263,18.90669 l 0,32.62985 c 0,3.73453 0.49109,6.55846 1.4714,8.4724 0.98032,1.86727 2.84758,2.8009 5.60179,2.8009 1.21373,0 2.5899,-0.1637 4.1304,-0.49047 l 0,7.84252 c -3.17436,0.7469 -6.41779,1.12035 -9.73219,1.12035 -4.66817,0 -8.07779,-1.21247 -10.22514,-3.63992 -2.10068,-2.47412 -3.29013,-6.3263 -3.57021,-11.55464 l -0.42076,0 c -3.22104,5.78853 -6.9786,9.89651 -11.27331,12.32396 -4.24803,2.38076 -9.43031,3.57269 -15.5456,3.57269 -7.60911,0 -13.32606,-2.00792 -17.15396,-6.02255 -3.82788,-4.01462 -5.74121,-9.5243 -5.74121,-16.52654 0,-7.84251 2.56562,-13.86383 7.7006,-18.06517 5.18167,-4.20135 13.51526,-6.44208 24.99895,-6.72216 l 17.01453,-0.27884 0,-4.13289 c 0,-6.16197 -1.30709,-10.57184 -3.92126,-13.23269 -2.61417,-2.66085 -6.72216,-3.99345 -12.32395,-3.99345 -5.64848,0 -9.75647,0.95915 -12.32396,2.87309 -2.56749,1.91395 -4.10736,4.97067 -4.62086,9.17202 l -13.16297,-1.19008 c 2.14735,-13.63104 12.27665,-20.4478 30.38912,-20.4478 z m -99.2987,0.0697 c 9.33633,0 16.3143,3.12829 20.93579,9.38362 4.62148,6.25534 6.93377,16.08276 6.93377,29.4804 0,26.42181 -9.29026,39.63332 -27.86956,39.63332 -11.6704,0 -19.51292,-4.38932 -23.52754,-13.16546 l -0.35105,0 c 0.18673,0.37346 0.28133,4.34077 0.28133,11.9032 l 0,29.61981 -12.60528,0 0,-90.04951 c 0,-7.79583 -0.13818,-12.95259 -0.41826,-15.4734 l 12.18204,0 c 0.0466,0.18672 0.11829,0.86205 0.21161,2.02909 0.0934,1.12036 0.18549,2.87248 0.27885,5.25324 0.14005,2.38076 0.21163,4.01524 0.21163,4.90219 l 0.27884,0 c 2.24072,-4.66816 5.20532,-8.07778 8.89316,-10.22514 3.68786,-2.19403 8.54274,-3.29136 14.56467,-3.29136 z m -281.57867,9.2442 c -7.3757,0 -12.72168,2.42745 -16.03608,7.28234 -3.26771,4.8082 -4.89971,12.34636 -4.89971,22.61632 0,9.98987 1.60897,17.50748 4.83001,22.5491 3.2677,4.99494 8.3809,7.49146 15.33647,7.49146 7.56242,0 12.95197,-2.42743 16.17301,-7.28233 3.26771,-4.85489 4.90219,-12.44159 4.90219,-22.75823 0,-10.45669 -1.56289,-18.0409 -4.69057,-22.75575 -3.08099,-4.76152 -8.28631,-7.14291 -15.61532,-7.14291 z m 170.16765,0 c -6.11529,0 -10.97018,2.054 -14.56467,6.16198 -3.5478,4.0613 -5.46362,9.6631 -5.74371,16.80539 l 40.89312,0 c -0.70023,-7.98256 -2.72869,-13.79411 -6.08977,-17.43529 -3.36108,-3.68784 -8.19295,-5.53208 -14.49497,-5.53208 z m 313.4392,0 c -6.34869,0 -10.94777,2.35836 -13.79535,7.07321 -2.80091,4.66816 -4.2001,12.2754 -4.2001,22.82545 0,10.59674 1.39919,18.18344 4.2001,22.75823 2.80089,4.5748 7.35142,6.86159 13.65345,6.86159 7.14228,0 12.32456,-2.47351 15.5456,-7.42177 3.22103,-4.94826 4.83248,-12.62707 4.83248,-23.03708 0,-10.03655 -1.61145,-17.39046 -4.83248,-22.05862 -3.22104,-4.66817 -8.35477,-7.00101 -15.4037,-7.00101 z m -205.24983,0.49047 c -4.99494,0 -8.91619,1.04878 -11.76378,3.14946 -2.80089,2.10067 -4.94701,5.39266 -6.44081,9.87409 -1.44713,4.43477 -2.17102,10.22328 -2.17102,17.36558 0,9.94318 1.58594,17.27157 4.76029,21.98642 3.17435,4.71486 8.33361,7.0732 15.47589,7.0732 6.25535,0 10.80588,-2.28677 13.65345,-6.86157 2.89427,-4.62149 4.34202,-12.34885 4.34202,-23.17899 0,-10.55005 -1.42223,-18.0882 -4.26982,-22.61632 -2.84757,-4.52812 -7.37756,-6.79187 -13.58622,-6.79187 z m 118.48423,29.96837 -13.79287,0.28133 c -5.92857,0.0933 -10.43303,0.6996 -13.51403,1.81997 -3.03431,1.12035 -5.36963,2.84696 -7.00349,5.18103 -1.63386,2.33409 -2.44985,5.39329 -2.44985,9.17451 0,4.10797 1.09733,7.28233 3.29137,9.52305 2.24071,2.24071 5.41507,3.36108 9.52305,3.36108 4.62148,0 8.72947,-1.05128 12.32395,-3.15195 3.5945,-2.10068 6.41842,-4.97066 8.47242,-8.61183 2.10066,-3.68784 3.14945,-7.47093 3.14945,-11.34551 l 0,-6.23168 z"
     id="rect3411"
     inkscape:connector-curvature="0" /><path
     opacity="0.5"
     fill="#FFFFFF"
     d="M34.004,340.809H2c-1.104,0-2-0.896-2-2V2c0-1.104,0.896-2,2-2h32.004c1.104,0,2,0.896,2,2  v7.71c0,1.104-0.896,2-2,2h-21.13v317.386h21.13c1.104,0,2,0.896,2,2.001v7.712C36.004,339.913,35.108,340.809,34.004,340.809  L34.004,340.809z"
     id="path3" /><path
     opacity="0.5"
     fill="#FFFFFF"
     d="M10.875,9.711v321.386h23.13v7.711H1.999V2.001h32.006v7.71H10.875z"
     id="path5" /><path
     opacity="0.5"
     fill="#FFFFFF"
     d="M791.322,340.809h-32.008c-1.105,0-2-0.896-2-2v-7.712c0-1.105,0.896-2.001,2-2.001h21.13  V11.71h-21.13c-1.105,0-2-0.896-2-2V2c0-1.104,0.896-2,2-2h32.008c1.104,0,2,0.896,2,2v336.809  C793.322,339.913,792.426,340.809,791.322,340.809L791.322,340.809z"
     id="path31" /><path
     opacity="0.5"
     fill="#FFFFFF"
     d="M782.443,331.097V9.711h-23.13v-7.71h32.008v336.807h-32.008v-7.711H782.443z"
     id="path33" /><path
     d="M10.875,9.711v321.386h23.13v7.711H1.999V2.001h32.006v7.71H10.875z"
     id="path35" /><path
     d="M782.443,331.097V9.711h-23.13v-7.71h32.008v336.807h-32.008v-7.711H782.443z"
     id="path49" /><path
     style="fill:none;fill-rule:evenodd;stroke:#000000;stroke-width:6.37360001;stroke-linecap:butt;stroke-linejoin:miter;stroke-miterlimit:4;stroke-dasharray:none;stroke-opacity:1"
     d="m 757.79499,70.765758 0,168.651752"
     id="path3454"
     inkscape:connector-curvature="0"
     sodipodi:nodetypes="cc" /><g
     transform="translate(-40.338405,-39.217897)"
     style="font-style:normal;font-weight:normal;font-size:40px;line-height:125%;font-family:sans-serif;letter-spacing:0px;word-spacing:0px;fill:#000000;fill-opacity:1;stroke:none;stroke-width:1px;stroke-linecap:butt;stroke-linejoin:miter;stroke-opacity:1"
     id="flowRoot4159"><path
       d="m 193.38037,310.34692 q 0,12.43652 -8.74512,12.43652 -5.49316,0 -7.38281,-4.13086 l -0.10986,0 q 0.0879,0.17578 0.0879,3.73535 l 0,9.29444 -3.95508,0 0,-28.25684 q 0,-3.66943 -0.13184,-4.85596 l 3.82325,0 q 0.022,0.0879 0.0659,0.63721 0.0439,0.52734 0.0879,1.64795 0.0659,1.1206 0.0659,1.53808 l 0.0879,0 q 1.05469,-2.19726 2.79053,-3.208 1.73584,-1.03272 4.57031,-1.03272 4.39454,0 6.56983,2.94434 2.17529,2.94433 2.17529,9.25049 z m -4.15283,0.0879 q 0,-4.96582 -1.34033,-7.09717 -1.34034,-2.13135 -4.2627,-2.13135 -2.35107,0 -3.6914,0.98877 -1.31836,0.98877 -2.02149,3.09815 -0.68115,2.0874 -0.68115,5.44921 0,4.68018 1.49414,6.89942 1.49414,2.21924 4.85596,2.21924 2.94433,0 4.28466,-2.15332 1.36231,-2.1753 1.36231,-7.27295 z"
       style="font-size:45px;text-align:center;letter-spacing:10px;text-anchor:middle"
       id="path4155" /><path
       d="m 228.4292,310.43481 q 0,6.24023 -2.74658,9.29443 -2.74658,3.0542 -7.97608,3.0542 -5.20752,0 -7.86621,-3.16406 -2.65869,-3.18604 -2.65869,-9.18457 0,-12.30469 10.65674,-12.30469 5.44922,0 8.02002,3.01025 2.5708,2.98828 2.5708,9.29444 z m -4.15283,0 q 0,-4.92188 -1.47217,-7.14112 -1.4502,-2.24121 -4.8999,-2.24121 -3.47168,0 -5.03174,2.28516 -1.53809,2.26318 -1.53809,7.09717 0,4.70215 1.51612,7.07519 1.53808,2.35108 4.81201,2.35108 3.55957,0 5.07568,-2.28516 1.53809,-2.28516 1.53809,-7.14111 z"
       style="font-size:45px;text-align:center;letter-spacing:10px;text-anchor:middle"
       id="path4157" /><path
       d="m 266.13672,322.34399 -4.59229,0 -4.15283,-16.80909 -0.79101,-3.71337 q -0.19776,0.98876 -0.61524,2.85644 -0.41748,1.8457 -4.48242,17.66602 l -4.57031,0 -6.65772,-23.77442 3.91114,0 4.02099,16.1499 q 0.15381,0.52735 0.94483,4.35059 l 0.37353,-1.62598 4.96582,-18.87451 4.24072,0 4.15284,16.32569 1.01074,4.1748 0.68115,-3.0542 4.50439,-17.44629 3.86719,0 -6.81152,23.77442 z"
       style="font-size:45px;text-align:center;letter-spacing:10px;text-anchor:middle"
       id="path4159" /><path
       d="m 288.9248,311.29174 q 0,4.08691 1.6919,6.30615 1.69189,2.21924 4.94385,2.21924 2.5708,0 4.10888,-1.03271 1.56006,-1.03272 2.10938,-2.61475 l 3.47168,0.98877 q -2.13135,5.625 -9.68994,5.625 -5.27344,0 -8.042,-3.14209 -2.74658,-3.14209 -2.74658,-9.33838 0,-5.88867 2.74658,-9.03076 2.76856,-3.14209 7.88819,-3.14209 10.48096,0 10.48096,12.63428 l 0,0.52734 -16.9629,0 z m 12.87598,-3.03223 q -0.32959,-3.75732 -1.91162,-5.47119 -1.58203,-1.73584 -4.54834,-1.73584 -2.87842,0 -4.57031,1.9336 -1.66992,1.91162 -1.80176,5.27343 l 12.83203,0 z"
       style="font-size:45px;text-align:center;letter-spacing:10px;text-anchor:middle"
       id="path4161" /><path
       d="m 321.0293,322.34399 0,-18.23731 q 0,-2.50488 -0.13184,-5.53711 l 3.73535,0 q 0.17578,4.04297 0.17578,4.85596 l 0.0879,0 q 0.94483,-3.0542 2.1753,-4.17481 1.23047,-1.1206 3.47168,-1.1206 0.79101,0 1.604,0.21973 l 0,3.62548 q -0.79101,-0.21972 -2.10937,-0.21972 -2.46094,0 -3.75733,2.13135 -1.29639,2.10937 -1.29639,6.06445 l 0,12.39258 -3.95507,0 z"
       style="font-size:45px;text-align:center;letter-spacing:10px;text-anchor:middle"
       id="path4163" /><path
       d="m 349.00293,311.29174 q 0,4.08691 1.69189,6.30615 1.6919,2.21924 4.94385,2.21924 2.5708,0 4.10889,-1.03271 1.56006,-1.03272 2.10937,-2.61475 l 3.47168,0.98877 q -2.13134,5.625 -9.68994,5.625 -5.27344,0 -8.04199,-3.14209 -2.74658,-3.14209 -2.74658,-9.33838 0,-5.88867 2.74658,-9.03076 2.76855,-3.14209 7.88818,-3.14209 10.48096,0 10.48096,12.63428 l 0,0.52734 -16.96289,0 z m 12.87598,-3.03223 q -0.32959,-3.75732 -1.91162,-5.47119 -1.58204,-1.73584 -4.54834,-1.73584 -2.87842,0 -4.57032,1.9336 -1.66992,1.91162 -1.80176,5.27343 l 12.83204,0 z"
       style="font-size:45px;text-align:center;letter-spacing:10px;text-anchor:middle"
       id="path4165" /><path
       d="m 396.02686,318.52074 q -1.09864,2.28516 -2.92237,3.27393 -1.80176,0.98877 -4.48242,0.98877 -4.50439,0 -6.63574,-3.03223 -2.10938,-3.03222 -2.10938,-9.18457 0,-12.43652 8.74512,-12.43652 2.70264,0 4.50439,0.98877 1.80176,0.98877 2.9004,3.14209 l 0.0439,0 -0.0439,-2.65869 0,-9.86573 3.95507,0 0,27.70752 q 0,3.71338 0.13184,4.89991 l -3.7793,0 q -0.0659,-0.35157 -0.15381,-1.62598 -0.0659,-1.27441 -0.0659,-2.19727 l -0.0879,0 z m -11.99707,-8.08593 q 0,4.98779 1.31835,7.14111 1.31836,2.15332 4.28467,2.15332 3.36182,0 4.87793,-2.3291 1.51612,-2.3291 1.51612,-7.22901 0,-4.72412 -1.51612,-6.92138 -1.51611,-2.19727 -4.83398,-2.19727 -2.98828,0 -4.32862,2.21924 -1.31835,2.19727 -1.31835,7.16309 z"
       style="font-size:45px;text-align:center;letter-spacing:10px;text-anchor:middle"
       id="path4167" /><path
       d="m 458.65381,310.34692 q 0,12.43652 -8.74512,12.43652 -2.70264,0 -4.50439,-0.9668 -1.77979,-0.98877 -2.90039,-3.16406 l -0.0439,0 q 0,0.68115 -0.0879,2.0874 -0.0879,1.38428 -0.13184,1.60401 l -3.82324,0 q 0.13184,-1.18653 0.13184,-4.89991 l 0,-27.70752 3.95508,0 0,9.29444 q 0,1.42822 -0.0879,3.36181 l 0.0879,0 q 1.09863,-2.28515 2.90039,-3.27392 1.82373,-0.98877 4.50439,-0.98877 4.5044,0 6.61377,3.03223 2.13135,3.03222 2.13135,9.18457 z m -4.15283,0.13183 q 0,-4.98779 -1.31836,-7.14111 -1.31836,-2.15332 -4.28467,-2.15332 -3.33984,0 -4.87793,2.28515 -1.51611,2.28516 -1.51611,7.25098 0,4.68018 1.49414,6.92139 1.49414,2.21924 4.85595,2.21924 2.98829,0 4.30664,-2.19727 1.34034,-2.21924 1.34034,-7.18506 z"
       style="font-size:45px;text-align:center;letter-spacing:10px;text-anchor:middle"
       id="path4169" /><path
       d="m 474.76221,331.68237 q -1.62598,0 -2.72461,-0.2417 l 0,-2.96631 q 0.83496,0.13183 1.8457,0.13183 3.69141,0 5.84473,-5.42724 l 0.37353,-0.94483 -9.42627,-23.66455 4.21875,0 5.00977,13.13965 q 0.10986,0.30762 0.26367,0.74707 0.15381,0.41748 0.98877,2.85645 0.83496,2.43896 0.90088,2.72461 l 1.53808,-4.32862 5.20752,-15.13916 4.17481,0 -9.14063,23.77442 q -1.47216,3.80127 -2.74658,5.64697 -1.27441,1.86767 -2.83447,2.76855 -1.53809,0.92286 -3.49365,0.92286 z"
       style="font-size:45px;text-align:center;letter-spacing:10px;text-anchor:middle"
       id="path4171" /><path
       d="m 542.4209,322.34399 0,-15.07325 q 0,-3.4497 -0.94483,-4.76806 -0.94482,-1.31836 -3.40576,-1.31836 -2.52685,0 -3.99902,1.93359 -1.47217,1.9336 -1.47217,5.44922 l 0,13.77686 -3.9331,0 0,-18.69873 q 0,-4.15284 -0.13184,-5.07569 l 3.73535,0 q 0.022,0.10987 0.0439,0.59326 0.022,0.4834 0.0439,1.12061 0.0439,0.61523 0.0879,2.35107 l 0.0659,0 q 1.27441,-2.52685 2.92236,-3.51562 1.64795,-0.98877 4.021,-0.98877 2.70264,0 4.2627,1.07666 1.58203,1.07666 2.19726,3.42773 l 0.0659,0 q 1.23047,-2.39502 2.96631,-3.4497 1.75781,-1.05469 4.24072,-1.05469 3.60352,0 5.22949,1.95557 1.64795,1.95556 1.64795,6.41601 l 0,15.84229 -3.91113,0 0,-15.07325 q 0,-3.4497 -0.94483,-4.76806 -0.94482,-1.31836 -3.40576,-1.31836 -2.59277,0 -4.04297,1.93359 -1.42822,1.91162 -1.42822,5.44922 l 0,13.77686 -3.91113,0 z"
       style="font-size:45px;text-align:center;letter-spacing:10px;text-anchor:middle"
       id="path4173" /><path
       d="m 582.17187,322.78344 q -3.58154,0 -5.3833,-1.88965 -1.80175,-1.88965 -1.80175,-5.18555 0,-3.6914 2.41699,-5.66894 2.43896,-1.97754 7.84424,-2.10938 l 5.33935,-0.0879 0,-1.29638 q 0,-2.90039 -1.23047,-4.15284 -1.23047,-1.25244 -3.86718,-1.25244 -2.6587,0 -3.86719,0.90088 -1.2085,0.90088 -1.4502,2.87842 l -4.13086,-0.37354 q 1.01075,-6.41601 9.53614,-6.41601 4.48242,0 6.7456,2.06543 2.26319,2.04346 2.26319,5.93262 l 0,10.23925 q 0,1.75782 0.46142,2.6587 0.46143,0.8789 1.75781,0.8789 0.57129,0 1.29639,-0.15381 l 0,2.46094 q -1.49414,0.35156 -3.0542,0.35156 -2.19726,0 -3.20801,-1.14258 -0.98877,-1.16455 -1.1206,-3.62548 l -0.13184,0 q -1.51611,2.72461 -3.5376,3.86718 -1.99951,1.12061 -4.87793,1.12061 z m 0.90088,-2.96631 q 2.1753,0 3.86719,-0.98877 1.6919,-0.98877 2.65869,-2.70264 0.98877,-1.73584 0.98877,-3.55957 l 0,-1.95556 -4.32861,0.0879 q -2.79053,0.0439 -4.24072,0.57129 -1.42823,0.52734 -2.19727,1.62597 -0.76904,1.09864 -0.76904,2.87842 0,1.9336 1.03271,2.98828 1.05469,1.05469 2.98828,1.05469 z"
       style="font-size:45px;text-align:center;letter-spacing:10px;text-anchor:middle"
       id="path4175" /><path
       d="m 620.29687,322.16821 q -1.95556,0.52734 -3.99902,0.52734 -4.74609,0 -4.74609,-5.3833 l 0,-15.86426 -2.74658,0 0,-2.87842 2.90039,0 1.16455,-5.31738 2.63672,0 0,5.31738 4.39453,0 0,2.87842 -4.39453,0 0,15.00732 q 0,1.71387 0.54931,2.417 0.57129,0.68115 1.95557,0.68115 0.79101,0 2.28515,-0.30762 l 0,2.92237 z"
       style="font-size:45px;text-align:center;letter-spacing:10px;text-anchor:middle"
       id="path4177" /><path
       d="m 633.72461,322.34399 0,-18.23731 q 0,-2.50488 -0.13184,-5.53711 l 3.73535,0 q 0.17579,4.04297 0.17579,4.85596 l 0.0879,0 q 0.94482,-3.0542 2.17529,-4.17481 1.23047,-1.1206 3.47168,-1.1206 0.79102,0 1.604,0.21973 l 0,3.62548 q -0.79101,-0.21972 -2.10937,-0.21972 -2.46094,0 -3.75733,2.13135 -1.29638,2.10937 -1.29638,6.06445 l 0,12.39258 -3.95508,0 z"
       style="font-size:45px;text-align:center;letter-spacing:10px;text-anchor:middle"
       id="path4179" /><path
       d="m 658.64404,293.51586 0,-3.7793 3.95508,0 0,3.7793 -3.95508,0 z m 0,28.82813 0,-23.77442 3.95508,0 0,23.77442 -3.95508,0 z"
       style="font-size:45px;text-align:center;letter-spacing:10px;text-anchor:middle"
       id="path4181" /><path
       d="m 693.25342,322.34399 -6.39405,-9.75586 -6.43798,9.75586 -4.2627,0 8.45947,-12.2168 -8.06396,-11.55762 4.37256,0 5.93261,9.25049 5.88868,-9.25049 4.4165,0 -8.06396,11.51367 8.56933,12.26075 -4.4165,0 z"
       style="font-size:45px;text-align:center;letter-spacing:10px;text-anchor:middle"
       id="path4183" /></g></svg>